<?xml version="1.0" encoding="UTF-8" standalone="no"?>
<!-- Created with Inkscape (http://www.inkscape.org/) -->

<svg
   width="665.414"
   height="447.04974"
   viewBox="0 0 665.41401 447.04975"
   version="1.1"
   id="svg5"
   xml:space="preserve"
   xmlns="http://www.w3.org/2000/svg"
   xmlns:svg="http://www.w3.org/2000/svg"><defs
     id="defs2" /><g
     id="layer1"
     transform="translate(166.74091,12.789167)"><g
       id="g1055"
       transform="translate(-377.20103,-430.98005)"
       style="opacity:1"> <path
   d="m 479.94619,540.69002 c -38.3463,-10.2555 -76.3654,-16.36736 -116.8057,-14.91709 33.83112,7.25136 67.72768,14.39913 101.42792,21.80588 6.67461,1.45027 17.92984,0.93231 15.57409,8.44265 -2.48662,8.02829 3.53362,18.74994 -16.35934,21.96126 -22.18327,3.57388 -44.10478,7.97649 -65.76455,14.08835 24.66989,-2.02002 49.40521,-4.04004 75.31841,-6.16365 -4.58062,16.00478 -9.48842,30.92186 -31.40994,41.53992 -35.99055,17.29967 -69.42904,36.93014 -106.6629,52.93492 -49.7324,21.39151 -74.14054,15.9012 -96.58556,-19.99303 -24.73532,-39.5717 -31.14818,-81.21522 -27.09106,-123.53208 2.8138,-29.3162 10.20822,-58.16625 28.66156,-85.35885 24.21183,-35.63525 46.32966,-40.91838 99.26848,-22.68639 46.65685,16.10838 85.59208,38.27681 119.68495,64.27812 17.99527,13.77758 23.62288,29.05723 20.74364,47.59999 z"
   id="path1049"
   style="stroke-width:0.582182" /> <path
   d="m 726.12156,517.38208 c -15.83584,3.10772 -31.80256,6.00827 -47.50753,9.32317 -15.90128,3.3667 -31.67168,7.04418 -48.1619,10.77345 -5.49674,-8.02829 -11.18979,-15.43504 -15.37778,-23.20435 -1.30875,-2.38259 0.65437,-6.26724 3.07556,-8.59804 37.16842,-35.47986 84.28332,-63.96734 145.20551,-81.83676 36.51405,-10.72165 53.98583,-6.57802 73.5516,15.8494 20.67821,23.7223 29.44681,49.93078 34.74724,76.50183 8.76861,43.92252 4.12255,87.37887 -16.2939,129.74753 -5.56218,11.55038 -14.13448,22.89357 -24.14639,33.14907 -13.74185,14.08835 -30.03575,17.66223 -53.52777,10.77344 -22.7722,-6.68161 -45.08634,-14.86528 -65.04474,-24.60282 -24.53901,-12.01654 -46.26422,-26.36387 -69.29817,-39.5717 -7.91792,-4.5062 -10.20823,-9.32318 -6.87092,-16.16017 2.94468,-6.06007 2.81381,-12.79347 4.05712,-19.2161 29.97031,3.3149 60.13693,6.68161 90.23812,10.04831 0.32719,-0.72514 0.58894,-1.50207 0.91613,-2.2272 -18.71509,-3.4703 -37.43018,-6.8888 -56.07983,-10.41088 -38.47717,-7.25136 -41.1601,-9.37497 -40.24398,-34.65114 0.0654,-2.58977 4.84237,-6.16365 8.89949,-7.51033 27.35281,-9.16779 55.03282,-17.81763 82.58195,-26.62285 -0.19631,-0.51795 -0.45806,-1.03591 -0.71981,-1.55386 z"
   id="path1051"
   style="stroke-width:0.582182" /> <path
   d="m 619.65497,585.59664 c 0,2.53798 0.0654,5.07596 0,7.61393 -0.78525,25.69053 -6.80549,30.66289 -47.31122,30.61109 -24.27726,-0.0518 -48.75084,-3.3149 -72.83179,-6.31904 -11.51697,-1.45027 -14.59253,-6.52622 -12.89116,-15.33144 5.23499,-26.41567 8.17967,-53.09031 9.94648,-79.71315 0.5235,-7.76931 4.12256,-11.23961 14.59253,-13.05245 0.5235,-0.10359 1.047,-0.25897 1.63594,-0.31077 77.08521,-11.75756 85.13401,-3.93645 102.54035,45.2692 3.59905,10.1519 3.79537,20.76996 5.56218,31.18084 -0.45807,0 -0.85069,0 -1.24331,0.0518 z"
   id="path1053"
   style="stroke-width:0.582182" /> <text
   xml:space="preserve"
   style="font-size:126.784px;font-family:'Fira Code';-inkscape-font-specification:'Fira Code';fill:#000000;stroke-width:7.31447"
   x="228.81676"
   y="823.50665"
   id="text2414"
   transform="scale(0.99924189,1.0007587)"><tspan
     id="tspan2412"
     x="228.81676"
     y="823.50665"
     style="font-style:normal;font-variant:normal;font-weight:bold;font-stretch:normal;font-family:'Snell Roundhand';-inkscape-font-specification:'Snell Roundhand';stroke-width:7.31447">Supper Club</tspan></text><text
   xml:space="preserve"
   style="font-size:17.3333px;font-family:'Fira Code';-inkscape-font-specification:'Fira Code';fill:#000000"
   x="143.20589"
   y="699.14001"
   id="text2468"><tspan
     id="tspan2466"
     x="143.20589"
     y="699.14001" /></text></g></g></svg>
